HIERARCHY
ROOT Hips
{
    OFFSET 0.0 0.0 0.0
    CHANNELS 6 Xposition Yposition Zposition Zrotation Xrotation Yrotation
    JOINT LeftHipJoint
    {
        OFFSET 0.1 0.0 0.0
        CHANNELS 3 Zrotation Xrotation Yrotation
        JOINT LeftUpLeg
        {
            OFFSET 128.3361560500768 0.0 0.0
            CHANNELS 3 Zrotation Xrotation Yrotation
            JOINT LeftLeg
            {
                OFFSET 0.0 0.0 -432.1951959250094
                CHANNELS 3 Zrotation Xrotation Yrotation
                JOINT LeftFoot
                {
                    OFFSET 0.0 0.0 -393.3911970169212
                    CHANNELS 3 Zrotation Xrotation Yrotation
                    End Site
                    {
                        OFFSET 0.0 -0.1 0.0
                    }
                }
            }
        }
    }
    JOINT LowerBack
    {
        OFFSET 0.0 0.0 0.1
        CHANNELS 3 Zrotation Xrotation Yrotation
        JOINT Spine
        {
            OFFSET 0.0 0.0 220.404825028158
            CHANNELS 3 Zrotation Xrotation Yrotation
            JOINT Spine1
            {
                OFFSET 0.0 0.0 251.40371460459508
                CHANNELS 3 Zrotation Xrotation Yrotation
                JOINT LeftShoulder
                {
                    OFFSET 0.1 0.0 0.0
                    CHANNELS 3 Zrotation Xrotation Yrotation
                    JOINT LeftArm
                    {
                        OFFSET 137.8472029223343 0.0 0.0
                        CHANNELS 3 Zrotation Xrotation Yrotation
                        JOINT LeftForeArm
                        {
                            OFFSET 270.18802291863256 0.0 0.0
                            CHANNELS 3 Zrotation Xrotation Yrotation
                            JOINT LeftHand
                            {
                                OFFSET 251.7859606058545 0.0 0.0
                                CHANNELS 3 Zrotation Xrotation Yrotation
                                End Site
                                {
                                    OFFSET 0.1 0.0 0.0
                                }
                            }
                        }
                    }
                }
                JOINT Neck
                {
                    OFFSET 0.0 0.0 0.1
                    CHANNELS 3 Zrotation Xrotation Yrotation
                    JOINT Neck1
                    {
                        OFFSET 0.0 0.0 101.61692364123344
                        CHANNELS 3 Zrotation Xrotation Yrotation
                        End Site
                        {
                            OFFSET 0.0 0.0 115.79046879788662
                        }
                    }
                }
                JOINT RightShoulder
                {
                    OFFSET -0.1 0.0 0.0
                    CHANNELS 3 Zrotation Xrotation Yrotation
                    JOINT RightArm
                    {
                        OFFSET -137.8472029223343 0.0 0.0
                        CHANNELS 3 Zrotation Xrotation Yrotation
                        JOINT RightForeArm
                        {
                            OFFSET -270.18802291863256 0.0 0.0
                            CHANNELS 3 Zrotation Xrotation Yrotation
                            JOINT RightHand
                            {
                                OFFSET -251.7859606058545 0.0 0.0
                                CHANNELS 3 Zrotation Xrotation Yrotation
                                End Site
                                {
                                    OFFSET -0.1 0.0 0.0
                                }
                            }
                        }
                    }
                }
            }
        }
    }
    JOINT RightHipJoint
    {
        OFFSET -0.1 0.0 0.0
        CHANNELS 3 Zrotation Xrotation Yrotation
        JOINT RightUpLeg
        {
            OFFSET -128.3361560500768 0.0 0.0
            CHANNELS 3 Zrotation Xrotation Yrotation
            JOINT RightLeg
            {
                OFFSET 0.0 0.0 -432.1951959250094
                CHANNELS 3 Zrotation Xrotation Yrotation
                JOINT RightFoot
                {
                    OFFSET 0.0 0.0 -393.3911970169212
                    CHANNELS 3 Zrotation Xrotation Yrotation
                    End Site
                    {
                        OFFSET 0.0 -0.1 0.0
                    }
                }
            }
        }
    }
}
MOTION
Frames: 7
Frame Time: 0.03333333333333333
0.0 0.0 821.2969820969188 17.271402345514137 -2.4690330806016543 9.21003478200831 -3.1805546814635164e-15 1.9310840053969444e-32 -6.957463365701442e-16 -0.568992253425394 -4.91490986319352 -3.8515940717931265 1.5057625288432936 28.45182145460406 2.65867177797723 0.0 0.0 -7.951386703658792e-16 -3.1805546814635164e-15 1.9310840053969444e-32 -6.957463365701442e-16 0.31903202403850295 2.7524708862774925 -6.675729310819396 -7.586169666244658 1.2431139288844363e-17 -1.8750199871631852e-16 0.0 0.0 -3.1060104311167156e-17 -30.877868552963292 -56.636079007465405 9.222383254496135 -108.70431340605298 7.414531019447748e-15 1.033825802880345e-14 0.0 0.0 0.0 0.0 0.0 -3.1060104311167156e-17 6.459883297177485 -12.458228843053982 -10.45356461535317 0.0 0.0 -3.1060104311167156e-17 2.5063343756906384 22.567842494833407 -68.3693645338055 108.64746938238252 -3.709829239669765e-15 5.16728936093279e-15 0.0 -6.3611093629270335e-15 0.0 -3.1805546814635164e-15 1.9310840053969444e-32 -6.957463365701442e-16 -0.9239904985819691 -7.911326809041766 -6.217178538737301 0.29393206949433137 32.80316837043652 3.7583150226761366 0.0 0.0 -1.5902773407317582e-15
0.0 0.0 821.2969820969188 17.553329609340228 -2.0619394752031885 9.125273525680656 0.0 0.0 -3.975693351829396e-16 -0.6239145746078347 -5.438618533999458 -3.81152277536798 1.4994658523650168 28.523767080653823 2.658896168122346 -6.896728590703373e-34 1.9878466759146975e-16 3.975693351829395e-16 0.0 0.0 -3.975693351829396e-16 0.3219567072143863 2.8055290266712136 -6.354547966403459 -7.476949379172179 1.3824024315003478e-16 1.7088978193921995e-16 0.0 0.0 1.8946663629811964e-16 -29.15246085900395 -55.4963391212723 10.642928706688465 -109.03514851323521 6.66729487835827e-15 -1.2564463404404004e-14 0.0 0.0 0.0 0.0 0.0 1.8946663629811964e-16 6.15594232849695 -12.69584161308663 -10.647976826858015 0.0 0.0 1.8946663629811964e-16 2.701428544080196 22.366610319002582 -68.52677558367304 108.7671571748314 -2.033676364105242e-14 1.0812474096744354e-15 0.0 0.0 3.1805546814635168e-15 0.0 0.0 -3.975693351829396e-16 -0.9460282205607757 -8.178719298520324 -6.122128825238776 0.3168433264986389 32.90480807308832 3.608553514113657 2.2069531490250793e-32 -3.1805546814635164e-15 7.951386703658791e-16
0.0 0.0 821.2969820969188 17.502410932059323 -1.7675279232056482 8.959674485687259 0.0 0.0 1.987846675914698e-16 -0.6452194276792783 -5.752622105027885 -3.6087942083940057 1.515322990938042 28.286267876431165 2.575930991695248 0.0 0.0 3.975693351829396e-16 0.0 0.0 1.987846675914698e-16 0.3284061802018873 2.9286783483067573 -6.017231841736762 -7.360188448371291 1.680718720704324e-16 4.838991914954385e-16 -1.5902773407317584e-15 -9.93923337957349e-17 -7.454425034680117e-17 -27.222388660581274 -54.00770396201195 12.219846546757351 -109.3964231162201 7.029414521973679e-15 -1.080264730130091e-15 -6.3611093629270335e-15 -3.1805546814635168e-15 -1.7655625192200634e-31 -1.5902773407317584e-15 -9.93923337957349e-17 -7.454425034680117e-17 5.9203913816447225 -12.791683704553915 -10.841890870375014 -1.5902773407317584e-15 -9.93923337957349e-17 -7.454425034680117e-17 2.9155905512573885 22.173594676204814 -68.50124618919716 108.8246753459019 1.1153239841025128e-15 -7.023937130938971e-15 0.0 0.0 3.1805546814635176e-15 0.0 0.0 1.987846675914698e-16 -0.965540832915919 -8.53945412683184 -5.874163495147843 0.38537203071892423 33.00267027887669 3.4124501064522335 0.0 0.0 -7.951386703658792e-16
0.0 0.0 821.2969820969188 17.47082342577322 -1.2897839815733991 8.81116252312416 7.069146805470957e-33 3.975693351829396e-16 -2.0375428428125655e-15 -0.6914930529122493 -6.260708620535993 -3.4395382704831143 1.5377250967578355 28.035947501068925 2.460701153411434 5.517382872562698e-32 -3.1805546814635164e-15 1.9878466759146976e-15 7.069146805470957e-33 3.975693351829396e-16 -2.0375428428125655e-15 0.330362624404065 2.9946870693813428 -5.699323301688747 -7.296670132391974 -5.490816656895865e-16 -1.5413721944817989e-15 0.0 0.0 0.0 -25.585499105121595 -52.64950237855121 13.582267476439604 -109.62041708426712 7.031512702120761e-15 -1.0665221651760813e-15 0.0 0.0 0.0 0.0 0.0 0.0 5.837076975565138 -13.250639577782971 -11.00183511030729 0.0 0.0 0.0 3.1004519797131693 21.95112350472608 -68.50781269570518 109.17191644896297 -1.4980723049949877e-15 -8.87035534932186e-15 -6.3611093629270335e-15 -6.3611093629270335e-15 -3.531125038440127e-31 7.069146805470957e-33 3.975693351829396e-16 -2.0375428428125655e-15 -1.0159324303840593 -9.126030382450132 -5.706115377813487 0.4350126598705118 33.098985133990745 3.337918191362933 0.0 0.0 -7.951386703658792e-16
0.0 0.0 821.2969820969188 17.563866504332093 -0.8606010742110318 8.649685593944334 0.0 0.0 -5.466578358765419e-16 -0.7344387687680056 -6.767238932113577 -3.2848629772199587 1.5571012671667595 27.957992228282674 2.4211547989912625 -3.1805546814635168e-15 1.1034765745125397e-32 -3.975693351829396e-16 0.0 0.0 -5.466578358765419e-16 0.33806306969012123 3.121493681428543 -5.317323058758185 -7.230359328863337 -1.1507697598118733e-17 9.702804392550027e-16 0.0 0.0 -4.969616689786745e-17 -23.538772705349604 -50.72751359272488 15.275985410004527 -109.74574067849181 1.2548767922127824e-15 -2.0326788619684248e-14 0.0 0.0 0.0 0.0 0.0 -4.969616689786745e-17 5.633042227983732 -13.554657124277254 -11.217535965884409 0.0 0.0 -4.969616689786745e-17 3.248441672298213 21.62727776753467 -68.57893863182039 109.47077824609761 1.0757033203961593e-15 -7.030113994480184e-15 0.0 0.0 3.1805546814635168e-15 0.0 0.0 -5.466578358765419e-16 -1.0648017569952246 -9.733968074613363 -5.532916403034241 0.4836141614894131 33.320411836570536 3.150489481682755 0.0 0.0 0.0
0.0 0.0 821.2969820969188 17.686216217900945 -0.4715709386652391 8.521902391576258 0.0 0.0 5.963540027744094e-16 -0.7659173724523766 -7.126768785429425 -3.283669276272015 1.5146878100564154 27.78810724400761 2.578458618793511 -6.361109362927033e-15 1.9878466759146975e-16 3.9756933518293955e-16 0.0 0.0 5.963540027744094e-16 0.34940110814222275 3.260310170134666 -4.923355981175971 -7.2805889739318985 4.817599834477354e-16 2.547348152891678e-16 -1.5902773407317584e-15 -3.975693351829396e-16 3.2302508483613845e-16 -21.588734068063335 -48.60440279102763 17.084347988195432 -109.88428401401247 -7.0339499105206055e-15 1.0503280750244738e-15 0.0 0.0 0.0 -1.5902773407317584e-15 -3.975693351829396e-16 3.2302508483613845e-16 5.525728163285926 -13.781901586960704 -11.468046704051936 -1.5902773407317584e-15 -3.975693351829396e-16 3.2302508483613845e-16 3.4360788716631925 21.352673049554987 -68.71753265652717 109.81933759349793 1.251854298609461e-14 -6.753120992614553e-15 0.0 0.0 0.0 0.0 0.0 5.963540027744094e-16 -1.1291212124782217 -10.41945985755489 -5.490946746448609 0.482320228398291 33.62809631478165 3.1253097855247467 0.0 0.0 -7.951386703658792e-16
0.0 0.0 821.2969820969188 17.76994229364162 -0.09896393026041503 8.425715008712237 0.0 0.0 3.975693351829396e-16 -0.8252903759074517 -7.6823650774203 -3.2509254327593626 1.5341002688152883 27.833915120849746 2.619653826336378 0.0 0.0 3.975693351829396e-16 0.0 0.0 3.975693351829396e-16 0.3627414903411251 3.389754005688666 -4.605693833671524 -7.3644573458043 4.448697157470341e-16 8.254134367433335e-16 0.0 0.0 -2.7332891793827095e-16 -19.73338431800914 -46.53423234249714 19.04465397909225 -109.2403100998255 -1.221434927492632e-14 4.772886881160945e-15 6.3611093629270335e-15 0.0 0.0 0.0 0.0 -2.7332891793827095e-16 5.310955046455706 -13.970104440312063 -11.677049267904428 0.0 0.0 -2.7332891793827095e-16 3.6365245099405583 21.030423242725345 -68.79139449529761 110.08811159993745 -5.213519661429645e-15 -3.6445747443295076e-15 0.0 0.0 -3.1805546814635168e-15 0.0 0.0 3.975693351829396e-16 -1.1945116713741204 -11.027276581675729 -5.450608832880024 0.5147355227365267 33.81695749985763 3.030688074405138 0.0 0.0 0.0
